<svg width="18" height="20" viewBox="0 0 18 20" fill="none" xmlns="http://www.w3.org/2000/svg">
<g clip-path="url(#clip0_0_1)">
<rect x="-207" y="-662" width="375" height="1415" fill="black"/>
<rect x="-13" y="-12" width="164" height="44" rx="5" fill="none"/>
<path d="M7 8V10H5V8H7ZM13 10V8H11V10H13ZM18 12V20H0V12H1V8C1 3.58 4.58 0 9 0C13.42 0 17 3.58 17 8V12H18ZM4 14H2V18H4V14ZM8 14H6V18H8V14ZM8 2.08C5.16 2.56 3 5.03 3 8V12H8V2.08ZM10 12H15V8C15 5.03 12.84 2.56 10 2.08V12ZM12 14H10V18H12V14ZM16 14H14V18H16V14Z" fill="black"/>
</g>
<defs>
<clipPath id="clip0_0_1">
<rect x="-207" y="-662" width="375" height="1415" fill="black"/>
</clipPath>
</defs>
</svg>
