<svg width="24" height="24" viewBox="0 0 24 24" fill="none" xmlns="http://www.w3.org/2000/svg">
<g clip-path="url(#clip0_0_1)">
<rect x="-204" y="-244" width="375" height="1415" fill="none"/>
<rect x="-10" y="-10" width="164" height="44" rx="5" fill="none"/>
<g clip-path="url(#clip1_0_1)">
<path d="M21.75 13.1251H3.75V4.68759C3.74913 4.36984 3.81129 4.05507 3.9329 3.76151C4.0545 3.46795 4.23312 3.20142 4.45842 2.97736L4.47717 2.95861C4.83026 2.60603 5.2836 2.37107 5.77524 2.28581C6.26688 2.20055 6.77286 2.26916 7.22405 2.48226C6.79794 3.19073 6.62083 4.02128 6.72086 4.84194C6.82089 5.6626 7.19233 6.42629 7.77614 7.01165L8.28947 7.52498L7.34461 8.46989L8.4052 9.53048L9.35006 8.58562L14.5855 3.35029L15.5303 2.40543L14.4697 1.34479L13.5248 2.28965L13.0115 1.77633C12.3969 1.16345 11.5867 0.78565 10.7222 0.708763C9.85764 0.631876 8.99353 0.860776 8.28042 1.35558C7.52846 0.880691 6.63734 0.67568 5.75346 0.774221C4.86958 0.872761 4.04549 1.26899 3.41658 1.89783L3.39783 1.91658C3.03279 2.27962 2.74338 2.71146 2.54635 3.18711C2.34933 3.66275 2.2486 4.17276 2.25 4.68759V13.1251H0.75V14.6251H2.25V16.0642C2.24997 16.1851 2.26947 16.3052 2.30775 16.4199L3.70312 20.6058C3.77759 20.8299 3.92078 21.0249 4.11235 21.163C4.30392 21.3011 4.53413 21.3753 4.77028 21.3751H5.37497L4.82812 23.2501H6.39061L6.9375 21.3751H16.6922L17.2547 23.2501H18.8203L18.2578 21.3751H19.2295C19.4657 21.3753 19.696 21.3011 19.8876 21.163C20.0792 21.0249 20.2224 20.83 20.2969 20.6058L21.6922 16.4199C21.7304 16.3052 21.75 16.1851 21.75 16.0642V14.6251H23.25V13.1251H21.75ZM8.83687 2.83697C9.25012 2.42462 9.81007 2.19304 10.3939 2.19304C10.9776 2.19304 11.5376 2.42462 11.9508 2.83697L12.4641 3.35029L9.3502 6.46415L8.83687 5.95092C8.42455 5.53766 8.19298 4.97772 8.19298 4.39394C8.19298 3.81017 8.42455 3.25023 8.83687 2.83697ZM20.25 16.0032L18.9594 19.8751H5.04056L3.75 16.0032V14.6251H20.25V16.0032Z" fill="black"/>
</g>
</g>
<defs>
<clipPath id="clip0_0_1">
<rect x="-204" y="-244" width="375" height="1415" fill="none"/>
</clipPath>
<clipPath id="clip1_0_1">
<rect width="24" height="24" fill="none"/>
</clipPath>
</defs>
</svg>
