<svg width="24" height="24" viewBox="0 0 24 24" fill="none" xmlns="http://www.w3.org/2000/svg">
<g clip-path="url(#clip0_0_1)">
<rect x="-204" y="-358" width="375" height="1415" fill="none"/>
<rect x="-10" y="-10" width="164" height="44" rx="5" fill="none"/>
<path fill-rule="evenodd" clip-rule="evenodd" d="M11.031 12.8009L5.66498 2.70793C5.63415 2.64995 5.61504 2.58646 5.60875 2.5211C5.60245 2.45574 5.6091 2.38978 5.62829 2.32698C5.66707 2.20016 5.75463 2.09393 5.87172 2.03168C5.98882 1.96942 6.12585 1.95622 6.25267 1.99499C6.31546 2.01419 6.37386 2.04557 6.42453 2.08734C6.4752 2.12911 6.51715 2.18045 6.54797 2.23843L11.9145 12.3314L12.6755 11.9264C12.9074 11.8031 13.1614 11.7267 13.4229 11.7016C13.6843 11.6764 13.9482 11.703 14.1994 11.7799C14.4506 11.8567 14.6842 11.9823 14.8868 12.1494C15.0895 12.3165 15.2572 12.522 15.3805 12.7539L15.7045 13.3634L19.1395 18.3904L14.7705 20.7129L13.257 17.7214L12.365 18.1729L13.8875 21.1829L12.0145 22.1784L9.76698 16.5194L9.44347 15.9104C9.32015 15.6785 9.24371 15.4246 9.21853 15.1631C9.19334 14.9017 9.21991 14.6378 9.2967 14.3866C9.3735 14.1354 9.49902 13.9018 9.6661 13.6992C9.83318 13.4965 10.0385 13.3287 10.2705 13.2054L11.0315 12.8009H11.031ZM13.1445 12.8099L10.7395 14.0884C10.6235 14.1501 10.5208 14.234 10.4373 14.3353C10.3537 14.4366 10.291 14.5534 10.2526 14.679C10.2142 14.8046 10.2009 14.9365 10.2135 15.0673C10.2261 15.198 10.2643 15.325 10.326 15.4409L10.6495 16.0499L14.821 13.8319L14.497 13.2234C14.4353 13.1075 14.3514 13.0048 14.2501 12.9212C14.1488 12.8377 14.032 12.7749 13.9064 12.7365C13.7808 12.6981 13.6489 12.6849 13.5181 12.6975C13.3874 12.71 13.2604 12.7483 13.1445 12.8099Z" fill="black"/>
<path d="M8.884 17.6798C8.79918 17.578 8.67737 17.5139 8.54535 17.5018C8.41334 17.4897 8.28192 17.5306 8.18 17.6153H8.181L8.1755 17.6193L8.144 17.6433C8.09926 17.677 8.05357 17.7093 8.007 17.7403C7.883 17.8228 7.698 17.9353 7.46 18.0484C6.84825 18.3424 6.17874 18.4966 5.5 18.4999C5.36739 18.4999 5.24021 18.5525 5.14645 18.6463C5.05268 18.7401 5 18.8672 5 18.9999C5 19.1325 5.05268 19.2596 5.14645 19.3534C5.24021 19.4472 5.36739 19.4999 5.5 19.4999C6.493 19.4999 7.3165 19.2244 7.89 18.9514C8.12273 18.8412 8.3473 18.7145 8.562 18.5724C8.64239 18.5186 8.72077 18.4619 8.797 18.4024L8.812 18.3909L8.817 18.3868L8.8185 18.3849H8.8195L8.82 18.3839C8.92181 18.299 8.98574 18.1771 8.99774 18.0451C9.00975 17.9131 8.96883 17.7817 8.884 17.6798Z" fill="black"/>
<path d="M9.916 20.2224C9.95245 20.277 9.97778 20.3383 9.99055 20.4027C10.0033 20.4671 10.0033 20.5334 9.9904 20.5978C9.97754 20.6622 9.95212 20.7235 9.91559 20.7781C9.87906 20.8326 9.83214 20.8795 9.7775 20.9159L9.7765 20.9169L9.7745 20.9179L9.7695 20.9209L9.754 20.9309C9.66743 20.986 9.57957 21.039 9.4905 21.0899C9.315 21.1904 9.0655 21.3239 8.7655 21.4569C8.1755 21.7194 7.3505 21.9999 6.5 21.9999C6.36739 21.9999 6.24021 21.9472 6.14645 21.8535C6.05268 21.7597 6 21.6325 6 21.4999C6 21.3673 6.05268 21.2401 6.14645 21.1464C6.24021 21.0526 6.36739 20.9999 6.5 20.9999C7.149 20.9999 7.825 20.7804 8.3595 20.5429C8.63797 20.4187 8.90819 20.2767 9.1685 20.1179C9.188 20.1064 9.2025 20.0969 9.2115 20.0909L9.2215 20.0849L9.2225 20.0839C9.27713 20.0475 9.3384 20.0221 9.40282 20.0094C9.46724 19.9966 9.53354 19.9966 9.59794 20.0095C9.66234 20.0224 9.72357 20.0478 9.77815 20.0843C9.83272 20.1208 9.87956 20.1678 9.916 20.2224Z" fill="black"/>
</g>
<defs>
<clipPath id="clip0_0_1">
<rect x="-204" y="-358" width="375" height="1415" fill="none"/>
</clipPath>
</defs>
</svg>
