<svg width="23" height="17" viewBox="0 0 23 17" fill="none" xmlns="http://www.w3.org/2000/svg">
<g clip-path="url(#clip0_0_1)">
<rect x="-204" y="-550" width="375" height="1415" fill="none"/>
<rect x="-10" y="-13" width="162.5" height="43" rx="5" fill="none"/>
<path d="M18.75 3.8125H9V9.46651H7.96153V7.54464C7.96033 6.45574 7.52724 5.41179 6.75728 4.64182C5.98732 3.87184 4.94338 3.43873 3.85448 3.4375H1.5V0.4375H0V16.5625H1.5V14.3245L21 14.4805V16.5625H22.5V7.5625C22.4989 6.56828 22.1034 5.61511 21.4004 4.9121C20.6974 4.20908 19.7442 3.81363 18.75 3.8125ZM1.5 4.9375H3.85448C4.54568 4.93828 5.20833 5.2132 5.69708 5.70195C6.18583 6.1907 6.46075 6.85336 6.46153 7.54455V9.46642H1.5V4.9375ZM21 12.9805L1.5 12.8245V10.9665H21V12.9805ZM21 9.46651H10.5V5.3125H18.75C19.3465 5.31318 19.9184 5.55045 20.3402 5.97226C20.762 6.39407 20.9993 6.96597 21 7.5625V9.46651Z" fill="black"/>
</g>
<defs>
<clipPath id="clip0_0_1">
<rect x="-204" y="-550" width="375" height="1415" fill="none"/>
</clipPath>
</defs>
</svg>
