<svg width="22" height="20" viewBox="0 0 22 20" fill="none" xmlns="http://www.w3.org/2000/svg">
<path id="Vector" d="M2.00023 7.01356V7.00006C2.00022 5.66665 2.39512 4.36311 3.13513 3.25389C3.87514 2.14467 4.9271 1.27947 6.15829 0.76745C7.38948 0.255431 8.74473 0.119533 10.0531 0.376898C11.3614 0.634264 12.5642 1.27336 13.5097 2.21357C14.2537 1.84639 15.0846 1.692 15.9108 1.76748C16.737 1.84295 17.5262 2.14535 18.1913 2.64125C18.8564 3.13716 19.3714 3.80727 19.6795 4.57754C19.9877 5.34782 20.0768 6.18828 19.9372 7.00606C20.1425 7.02511 20.3416 7.08626 20.5222 7.1857C20.7027 7.28513 20.8609 7.42072 20.9867 7.58399C21.1125 7.74726 21.2034 7.93472 21.2535 8.13465C21.3037 8.33459 21.3121 8.54273 21.2782 8.74606C20.6002 12.8246 18.9232 15.4061 16.2502 16.4921V17.5001C16.2502 18.0968 16.0132 18.6691 15.5912 19.091C15.1693 19.513 14.597 19.7501 14.0002 19.7501H8.00023C7.4035 19.7501 6.8312 19.513 6.40924 19.091C5.98729 18.6691 5.75023 18.0968 5.75023 17.5001V16.4921C3.07723 15.4061 1.40023 12.8246 0.722234 8.74606C0.689513 8.54813 0.69683 8.34564 0.743751 8.15059C0.790673 7.95553 0.876246 7.77187 0.995406 7.61047C1.11457 7.44907 1.26489 7.31322 1.43749 7.21095C1.61008 7.10868 1.80144 7.04207 2.00023 7.01506V7.01356ZM3.50023 7.00006H5.00023C5.00023 6.0055 5.39532 5.05168 6.09858 4.34841C6.80185 3.64515 7.75567 3.25007 8.75023 3.25007C9.7448 3.25007 10.6986 3.64515 11.4019 4.34841C12.1051 5.05168 12.5002 6.0055 12.5002 7.00006H14.0002C14.0002 5.60768 13.4471 4.27232 12.4625 3.28776C11.478 2.30319 10.1426 1.75007 8.75023 1.75007C7.35785 1.75007 6.02249 2.30319 5.03792 3.28776C4.05336 4.27232 3.50023 5.60768 3.50023 7.00006ZM6.50023 7.00006H11.0002C11.0002 6.40333 10.7632 5.83103 10.3412 5.40907C9.91927 4.98712 9.34697 4.75006 8.75023 4.75006C8.1535 4.75006 7.5812 4.98712 7.15924 5.40907C6.73729 5.83103 6.50023 6.40333 6.50023 7.00006ZM16.7992 7.00006H18.4057C18.519 6.55677 18.5295 6.09348 18.4366 5.64549C18.3437 5.1975 18.1497 4.77663 17.8695 4.41496C17.5893 4.05329 17.2302 3.76036 16.8196 3.55849C16.409 3.35661 15.9578 3.25113 15.5002 3.25007C15.1402 3.25007 14.7982 3.31307 14.4802 3.42857C14.7457 3.85457 14.9647 4.31357 15.1327 4.79506C15.4184 4.72421 15.7186 4.7388 15.9961 4.83703C16.2736 4.93526 16.5161 5.1128 16.6936 5.34763C16.8711 5.58246 16.9757 5.86424 16.9945 6.15799C17.0133 6.45175 16.9454 6.74455 16.7992 7.00006ZM14.7502 16.7501H7.25023V17.5001C7.25023 17.699 7.32925 17.8897 7.4699 18.0304C7.61056 18.171 7.80132 18.2501 8.00023 18.2501H14.0002C14.1991 18.2501 14.3899 18.171 14.5306 18.0304C14.6712 17.8897 14.7502 17.699 14.7502 17.5001V16.7501ZM6.72223 15.2501H15.2782C17.6572 14.4851 19.1632 12.3221 19.7992 8.50006H2.20123C2.83723 12.3221 4.34323 14.4851 6.72223 15.2501Z" fill="black"/>
</svg>
