<svg width="24" height="24" viewBox="0 0 24 24" fill="none" xmlns="http://www.w3.org/2000/svg">
<path fill-rule="evenodd" clip-rule="evenodd" d="M9.76024 12.8648L0.803748 0.896281C0.752293 0.827529 0.720402 0.75225 0.709897 0.674742C0.699392 0.597234 0.710479 0.519014 0.742523 0.44455C0.80724 0.294162 0.953396 0.168199 1.14884 0.0943701C1.34428 0.0205414 1.573 0.00489512 1.78468 0.0508731C1.88949 0.0736391 1.98697 0.110849 2.07154 0.160378C2.15611 0.209908 2.22612 0.270787 2.27758 0.339539L11.2349 12.308L12.5051 11.8278C12.8922 11.6815 13.3161 11.5909 13.7526 11.5611C14.189 11.5313 14.6294 11.5629 15.0487 11.654C15.468 11.7451 15.8579 11.894 16.1961 12.0922C16.5344 12.2904 16.8143 12.534 17.0201 12.809L17.5609 13.5318L23.2943 19.4929L16.0019 22.247L13.4757 18.6996L11.9868 19.235L14.5281 22.8043L11.4018 23.9848L7.65047 17.2742L7.11051 16.5521C6.90467 16.2771 6.77708 15.976 6.73505 15.6659C6.69302 15.3559 6.73736 15.043 6.86554 14.7451C6.99372 14.4473 7.20323 14.1703 7.4821 13.9299C7.76098 13.6896 8.10376 13.4906 8.49088 13.3444L9.76107 12.8648H9.76024ZM13.2879 12.8754L9.27369 14.3915C9.08014 14.4646 8.90874 14.5641 8.76931 14.6843C8.62987 14.8044 8.52511 14.9429 8.46102 15.0919C8.39693 15.2408 8.37476 15.3972 8.39578 15.5523C8.4168 15.7073 8.48059 15.8578 8.58351 15.9953L9.12347 16.7175L16.0862 14.0873L15.5454 13.3658C15.4425 13.2283 15.3025 13.1065 15.1333 13.0074C14.9642 12.9084 14.7692 12.834 14.5596 12.7884C14.35 12.7429 14.1298 12.7271 13.9116 12.7421C13.6934 12.757 13.4815 12.8023 13.2879 12.8754Z" fill="white"/>
</svg>
