<svg width="44" height="44" viewBox="0 0 44 44" fill="none" xmlns="http://www.w3.org/2000/svg">
<path fill-rule="evenodd" clip-rule="evenodd" d="M19.7602 19.8648L10.8037 7.89628C10.7523 7.82753 10.7204 7.75225 10.7099 7.67474C10.6994 7.59723 10.7105 7.51901 10.7425 7.44455C10.8072 7.29416 10.9534 7.1682 11.1488 7.09437C11.3443 7.02054 11.573 7.0049 11.7847 7.05087C11.8895 7.07364 11.987 7.11085 12.0715 7.16038C12.1561 7.20991 12.2261 7.27079 12.2776 7.33954L21.2349 19.308L22.5051 18.8278C22.8922 18.6815 23.3161 18.5909 23.7526 18.5611C24.189 18.5313 24.6294 18.5629 25.0487 18.654C25.468 18.7451 25.8579 18.894 26.1961 19.0922C26.5344 19.2904 26.8143 19.534 27.0201 19.809L27.5609 20.5318L33.2943 26.4929L26.0019 29.247L23.4757 25.6996L21.9868 26.235L24.5281 29.8043L21.4018 30.9848L17.6505 24.2742L17.1105 23.5521C16.9047 23.2771 16.7771 22.976 16.735 22.6659C16.693 22.3559 16.7374 22.043 16.8655 21.7451C16.9937 21.4473 17.2032 21.1703 17.4821 20.9299C17.761 20.6896 18.1038 20.4906 18.4909 20.3444L19.7611 19.8648H19.7602ZM23.2879 19.8754L19.2737 21.3915C19.0801 21.4646 18.9087 21.5641 18.7693 21.6843C18.6299 21.8044 18.5251 21.9429 18.461 22.0919C18.3969 22.2408 18.3748 22.3972 18.3958 22.5523C18.4168 22.7073 18.4806 22.8578 18.5835 22.9953L19.1235 23.7175L26.0862 21.0873L25.5454 20.3658C25.4425 20.2283 25.3025 20.1065 25.1333 20.0074C24.9642 19.9084 24.7692 19.834 24.5596 19.7884C24.35 19.7429 24.1298 19.7271 23.9116 19.7421C23.6934 19.757 23.4815 19.8023 23.2879 19.8754Z" fill="black"/>
<path d="M25.48 31.2545C25.3233 31.1019 25.0983 31.006 24.8544 30.9879C24.6106 30.9698 24.3678 31.031 24.1796 31.1579H24.1814L24.1713 31.1639L24.1131 31.1998C24.0304 31.2502 23.946 31.2986 23.86 31.3451C23.631 31.4686 23.2892 31.6371 22.8496 31.8063C21.7196 32.2466 20.483 32.4776 19.2292 32.4824C18.9843 32.4824 18.7494 32.5613 18.5762 32.7017C18.403 32.8422 18.3057 33.0326 18.3057 33.2312C18.3057 33.4298 18.403 33.6202 18.5762 33.7606C18.7494 33.901 18.9843 33.9799 19.2292 33.9799C21.0634 33.9799 22.5846 33.5674 23.6439 33.1585C24.0738 32.9935 24.4886 32.8039 24.8852 32.591C25.0337 32.5105 25.1785 32.4256 25.3193 32.3364L25.347 32.3192L25.3562 32.3132L25.359 32.3102H25.3608L25.3617 32.3087C25.5498 32.1816 25.6679 31.9991 25.6901 31.8014C25.7122 31.6038 25.6367 31.407 25.48 31.2545Z" fill="black"/>
<path d="M25.5391 34.3132C25.6064 34.395 25.6532 34.4868 25.6768 34.5833C25.7003 34.6797 25.7003 34.779 25.6765 34.8755C25.6527 34.9719 25.6058 35.0636 25.5383 35.1453C25.4708 35.227 25.3842 35.2972 25.2832 35.3517L25.2814 35.3532L25.2777 35.3547L25.2685 35.3592L25.2398 35.3742C25.0799 35.4567 24.9176 35.5361 24.7531 35.6123C24.4289 35.7628 23.9681 35.9627 23.4139 36.1619C22.3241 36.555 20.8002 36.975 19.2292 36.975C18.9843 36.975 18.7494 36.8961 18.5762 36.7557C18.403 36.6153 18.3057 36.4249 18.3057 36.2263C18.3057 36.0277 18.403 35.8373 18.5762 35.6968C18.7494 35.5564 18.9843 35.4775 19.2292 35.4775C20.428 35.4775 21.6767 35.1488 22.664 34.7932C23.1784 34.6071 23.6775 34.3945 24.1583 34.1568C24.1943 34.1395 24.2211 34.1253 24.2378 34.1163L24.2562 34.1073L24.2581 34.1058C24.359 34.0513 24.4722 34.0133 24.5911 33.9942C24.7101 33.9751 24.8326 33.9752 24.9516 33.9944C25.0705 34.0137 25.1836 34.0517 25.2844 34.1065C25.3852 34.1612 25.4718 34.2314 25.5391 34.3132Z" fill="black"/>
</svg>
