<svg width="24" height="24" viewBox="0 0 24 24" fill="none" xmlns="http://www.w3.org/2000/svg">
<g clip-path="url(#clip0_0_1)">
<rect x="-204" y="-415" width="375" height="1415" fill="none"/>
<rect x="-10" y="-10" width="164" height="44" rx="5" fill="none"/>
<path d="M12 3C11.031 3 10.2045 3.633 9.89025 4.5H9C6.94125 4.5 5.25 6.19125 5.25 8.25H6.75C6.75 7.00875 7.75875 6 9 6H9.75V7.8525C9.51 8.03025 9.20025 8.28375 8.835 8.6475C8.2155 9.27 7.5 10.125 7.5 11.25V21H16.5V11.25C16.5 10.125 15.7852 9.27 15.165 8.6475C14.7997 8.28375 14.49 8.03025 14.25 7.8525V7.64025L17.883 8.25L18.75 8.391V3.609L17.883 3.75L14.0625 4.383C13.719 3.5775 12.9255 3 12 3ZM12 4.5C12.4163 4.5 12.75 4.83375 12.75 5.25V7.5H11.25V5.25C11.25 4.83375 11.5837 4.5 12 4.5ZM17.25 5.391V6.60975L14.25 6.09375V5.90625L17.25 5.39025V5.391ZM10.7812 9H13.2188C13.3313 9.07875 13.6523 9.2925 14.0858 9.7275C14.5905 10.23 15.0007 10.875 15.0007 11.25V19.5H9.00075V11.25C9.00075 10.875 9.411 10.23 9.91575 9.7275C10.3485 9.2925 10.6688 9.07875 10.782 9H10.7812ZM10.5 12.75V14.25H13.5V12.75H10.5Z" fill="black"/>
</g>
<defs>
<clipPath id="clip0_0_1">
<rect x="-204" y="-415" width="375" height="1415" fill="none"/>
</clipPath>
</defs>
</svg>
