<svg width="24" height="24" viewBox="0 0 24 24" fill="none" xmlns="http://www.w3.org/2000/svg">
<g id="clarity:image-gallery-line">
<path id="Vector" d="M21.413 6.66669H2.58634C2.25394 6.66669 1.93515 6.79873 1.7001 7.03378C1.46505 7.26883 1.33301 7.58762 1.33301 7.92002V20.08C1.33301 20.4124 1.46505 20.7312 1.7001 20.9663C1.93515 21.2013 2.25394 21.3334 2.58634 21.3334H21.413C21.7454 21.3334 22.0642 21.2013 22.2992 20.9663C22.5343 20.7312 22.6663 20.4124 22.6663 20.08V7.92002C22.6663 7.58762 22.5343 7.26883 22.2992 7.03378C22.0642 6.79873 21.7454 6.66669 21.413 6.66669ZM21.333 20H2.66634V8.00002H21.333V20Z" fill="white"/>
<path id="Vector_2" d="M5.70703 12.9667C6.10259 12.9667 6.48927 12.8494 6.81817 12.6296C7.14707 12.4099 7.40341 12.0975 7.55479 11.732C7.70617 11.3666 7.74577 10.9645 7.6686 10.5765C7.59143 10.1885 7.40095 9.83217 7.12124 9.55246C6.84154 9.27276 6.48517 9.08228 6.09721 9.00511C5.70925 8.92793 5.30712 8.96754 4.94166 9.11892C4.57621 9.27029 4.26385 9.52664 4.04409 9.85554C3.82433 10.1844 3.70703 10.5711 3.70703 10.9667C3.70703 11.4971 3.91774 12.0058 4.29282 12.3809C4.66789 12.756 5.1766 12.9667 5.70703 12.9667ZM5.70703 9.90001C5.91905 9.89471 6.12784 9.95273 6.30673 10.0667C6.48561 10.1806 6.62647 10.3453 6.71131 10.5397C6.79615 10.734 6.82111 10.9493 6.78302 11.1579C6.74492 11.3666 6.64549 11.5591 6.49743 11.711C6.34937 11.8628 6.15941 11.9671 5.9518 12.0105C5.74419 12.0538 5.52837 12.0343 5.3319 11.9544C5.13544 11.8746 4.96724 11.7379 4.84882 11.562C4.73039 11.386 4.6671 11.1788 4.66703 10.9667C4.66694 10.6883 4.77566 10.421 4.96996 10.2217C5.16427 10.0224 5.42878 9.90697 5.70703 9.90001Z" fill="white"/>
<path id="Vector_3" d="M5.26629 18.6667L9.26629 14.6667L11.3863 16.7867L9.50629 18.6667H10.8396L15.813 13.6934L19.9996 17.8467V16.5134L16.133 12.6667C16.0443 12.5788 15.9245 12.5294 15.7996 12.5294C15.6748 12.5294 15.5549 12.5788 15.4663 12.6667L12.0263 16.1067L9.57962 13.6667C9.49097 13.5788 9.37116 13.5294 9.24629 13.5294C9.12142 13.5294 9.00161 13.5788 8.91296 13.6667L3.94629 18.6667H5.26629Z" fill="white"/>
<path id="Vector_4" d="M20.0938 1.99998C20.0938 1.82317 20.0235 1.6536 19.8985 1.52858C19.7735 1.40355 19.6039 1.33331 19.4271 1.33331H4.76042C4.58361 1.33331 4.41404 1.40355 4.28901 1.52858C4.16399 1.6536 4.09375 1.82317 4.09375 1.99998V2.66665H20.0938V1.99998Z" fill="white"/>
<path id="Vector_5" d="M21.4137 4.66667C21.4137 4.48986 21.3435 4.32029 21.2185 4.19526C21.0935 4.07024 20.9239 4 20.7471 4H3.41374C3.23693 4 3.06736 4.07024 2.94233 4.19526C2.81731 4.32029 2.74707 4.48986 2.74707 4.66667V5.33333H21.4137V4.66667Z" fill="white"/>
</g>
</svg>
