<svg width="16" height="24" viewBox="0 0 16 24" fill="none" xmlns="http://www.w3.org/2000/svg">
<path d="M13.953 3.19882H10.6165C10.0137 3.20074 10.0362 4.0993 10.6165 4.09402H13.953V4.55338H10.6165C10.017 4.5481 10.0391 5.44618 10.6165 5.44858H13.953V5.91802H10.6165C10.017 5.91802 10.0391 6.81562 10.6165 6.81322H13.953V7.26058H10.6165C10.0295 7.2649 10.0391 8.16346 10.6165 8.16634H13.953V8.61466H10.6165C10.0295 8.61274 10.0271 9.50986 10.6165 9.50986H13.953V9.95722H10.6165C10.0295 9.95914 10.0271 10.8572 10.6165 10.8529H13.953V11.3113H10.6165C10.0295 11.306 10.0271 12.2031 10.6165 12.2065H13.953V12.6529H10.6165C10.0295 12.6524 10.0391 13.5515 10.6165 13.5486H13.953V22.2649C13.9549 23.5931 15.9724 23.5691 15.9781 22.2649V1.8673C15.9724 1.26058 15.4741 0.493543 14.6543 0.491143H10.6165C10.0137 0.491623 10.0362 1.39018 10.6165 1.38634L13.953 1.39738V1.84378H10.6165C10.0146 1.8409 10.0372 2.73898 10.6165 2.73946H13.953V3.19882ZM10.3871 18.6519C10.3852 17.1015 8.77814 15.434 6.85814 16.514V10.5841L5.61638 0.804103C5.59046 0.545383 5.3711 0.484423 5.22374 0.480103C5.07158 0.484423 4.76678 0.545383 4.73366 0.804103L3.49814 10.5841V16.514C1.57814 15.434 0.0229409 17.1121 0.0224609 18.6399C0.0229409 19.9993 1.06934 21.1158 2.48534 21.1124C3.9119 21.1158 4.93814 19.8644 4.93814 18.6399V12.4801H5.41814V18.6399C5.41814 20.0108 6.4799 21.0255 7.65974 21.0899C7.64006 21.8415 7.88534 22.9139 8.3471 23.3391C8.88854 23.8383 9.53318 23.1999 9.2687 22.6801C9.01334 22.1963 8.76278 21.9097 8.9663 20.8532C9.81686 20.4596 10.3852 19.6311 10.3871 18.6519ZM2.54006 19.8716C2.21639 19.8716 1.90598 19.743 1.67711 19.5142C1.44824 19.2853 1.31966 18.9749 1.31966 18.6512C1.31966 18.3276 1.44824 18.0171 1.67711 17.7883C1.90598 17.5594 2.21639 17.4308 2.54006 17.4308C3.20534 17.4347 3.74726 17.9804 3.75206 18.6519C3.75069 18.9737 3.6228 19.2819 3.39602 19.5102C3.16924 19.7384 2.86178 19.8682 2.54006 19.8716ZM6.65414 18.6519C6.65526 18.3299 6.78309 18.0213 7.00999 17.7928C7.23688 17.5642 7.54461 17.4342 7.86662 17.4308C8.18874 17.4337 8.49671 17.5636 8.72364 17.7922C8.95057 18.0209 9.07813 18.3298 9.07862 18.6519C9.07812 18.9739 8.95052 19.2827 8.72355 19.5111C8.49658 19.7395 8.18861 19.8691 7.86662 19.8716C7.5447 19.8687 7.2369 19.7391 7.00994 19.5107C6.78297 19.2824 6.65514 18.9739 6.65414 18.6519Z" fill="black"/>
</svg>
