<svg width="24" height="24" viewBox="0 0 24 24" fill="none" xmlns="http://www.w3.org/2000/svg">
<g clip-path="url(#clip0_0_1)">
<rect x="-26" y="-358" width="375" height="1415" fill="none"/>
<rect x="-10" y="-10" width="164" height="44" rx="5" fill="none"/>
<g clip-path="url(#clip1_0_1)">
<path fill-rule="evenodd" clip-rule="evenodd" d="M19.0886 11.2786C18.7243 11.2786 18.3869 11.3803 18.089 11.5469L15.9135 7.88615L16.4443 7.40474L14.2151 4.94403L12.7935 7.49227L14.3959 9.26262L14.9013 8.8038L17.17 12.5591C17.0139 12.9234 16.9632 13.3242 17.0239 13.7158C17.0846 14.1074 17.254 14.4742 17.513 14.7741L15.778 20.321C14.8073 19.9861 13.7879 19.8139 12.761 19.8113C8.92103 19.8113 5.64856 19.2819 4.32715 22.5163H21.1921C20.4241 20.6386 18.9869 21.9191 17.1784 20.9407L18.8584 15.4927C18.9333 15.5012 19.0053 15.5167 19.0843 15.5167C19.3808 15.5167 19.6617 15.4518 19.9173 15.3389C20.345 15.1497 20.6909 14.8165 20.9111 14.4043C21.0735 14.105 21.1737 13.7661 21.1737 13.4005C21.1765 13.1242 21.1248 12.85 21.0214 12.5937C20.9181 12.3374 20.7652 12.104 20.5715 11.9069C20.3778 11.7097 20.1471 11.5528 19.8926 11.445C19.6381 11.3372 19.3649 11.2806 19.0886 11.2786Z" fill="black"/>
<path fill-rule="evenodd" clip-rule="evenodd" d="M14.3051 2.77475L11.7823 -0.0134888L4.39453 3.19828L10.3818 9.81098L14.3051 2.77475Z" fill="black"/>
<path fill-rule="evenodd" clip-rule="evenodd" d="M6.31455 7.5148C7.72491 9.07339 8.97149 8.17833 8.97149 8.17833L5.89667 4.78021C5.89667 4.78021 4.89996 5.95621 6.31455 7.5148Z" fill="black"/>
</g>
</g>
<defs>
<clipPath id="clip0_0_1">
<rect x="-26" y="-358" width="375" height="1415" fill="none"/>
</clipPath>
<clipPath id="clip1_0_1">
<rect width="24" height="24" fill="none"/>
</clipPath>
</defs>
</svg>
