<svg width="20" height="20" viewBox="0 0 20 20" fill="none" xmlns="http://www.w3.org/2000/svg">
<path d="M18.787 6.75001C18.662 6.77701 16.984 7.16801 14.834 8.52401C14.511 6.95701 13.555 4.02301 10.726 1.03901L10 0.27301L9.274 1.04001C6.435 4.03501 5.483 6.97701 5.163 8.55401C3.005 7.17501 1.34 6.77901 1.218 6.75101L0 6.47901V7.72701C0 15.017 3.925 19.727 10 19.727C15.981 19.727 20 14.905 20 7.72701V6.48501L18.787 6.75001ZM6.999 9.76501C7.001 9.73201 7.151 6.66501 10 3.23301C12.814 6.63301 12.999 9.72701 13 9.72701V9.85201C11.8786 10.7839 10.8685 11.8423 9.99 13.006C9.10898 11.8628 8.10606 10.819 6.999 9.89301V9.76501ZM10 17.727C4.684 17.727 2.451 13.531 2.063 9.16301C3.718 9.88101 6.679 11.589 9.17 15.286L10.011 16.535L10.836 15.275C13.262 11.567 16.261 9.86401 17.932 9.15301C17.534 13.381 15.304 17.727 10 17.727Z" fill="black"/>
</svg>
